# xmcd
#
# Track frame offsets:
#	150
#	10098
#	16732
#	22932
#	29351
#	37494
#	44074
#	52118
#	62844
#	81534
#	89357
#	94222
#	106192
#	115741
#	124110
#	138346
#	144429
#	154207
#	166960
#	174654
#	182478
#
# Disc length: 2646 seconds
#
# Revision: 0
# Processed by: cddbd v1.5.2PL0 Copyright (c) Steve Scherf et al.
# Submitted via: EasyCDDAExtractor 16.1.0.1
#
DISCID=1e0a5415
DTITLE=Разные исполнители - Край, в котором ты живешь
DYEAR=1900
DGENRE=
TTITLE0=Край, в котором ты живешь
TTITLE1=Мы Родиной зовем
TTITLE2=Новогодняя песенка
TTITLE3=Вот как мы живем
TTITLE4=Котенок и щенок
TTITLE5=Почему медведь зимой спит
TTITLE6=Бабушкин кот
TTITLE7=Чудо-ярмарка
TTITLE8=Четыре ветра
TTITLE9=Кадэ Руссель
TTITLE10=Простое слово
TTITLE11=Музыка всегда с тобой
TTITLE12=Лунная песня
TTITLE13=Колыбельная медведицы
TTITLE14=Перед сном
TTITLE15=Улитка
TTITLE16=Туман яром
TTITLE17=Ах, ты, батюшка, свет-светёл
TTITLE18=Ох, уж ты, Порушка-Парная
TTITLE19=Ай, как у нас-то, братцы
TTITLE20=Ай, во городе Коломне
EXTD=
EXTT0=
EXTT1=
EXTT2=
EXTT3=
EXTT4=
EXTT5=
EXTT6=
EXTT7=
EXTT8=
EXTT9=
EXTT10=
EXTT11=
EXTT12=
EXTT13=
EXTT14=
EXTT15=
EXTT16=
EXTT17=
EXTT18=
EXTT19=
EXTT20=
PLAYORDER=
